<svg xmlns="http://www.w3.org/2000/svg" viewBox="0 0 535.41 204.45"><defs><style>.cls-1{fill:#1e1e1e;stroke:#313131;stroke-miterlimit:10;}</style></defs><title>Ativo 1</title><g id="Camada_2" data-name="Camada 2"><g id="Camada_1-2" data-name="Camada 1"><path class="cls-1" d="M30.11,82.35v65.77H.5V.5H30.11V66.7L83.83.5h35.74L58.66,73.67l62.6,74.45H83.83Z"/><path class="cls-1" d="M212,29.05c30,0,53.51,23.48,53.51,60.06S242,150,212,150c-18.4,0-31.51-9.09-38.7-18.61V204H143.67V31h29.61V47.87C180.26,37.93,193.79,29.05,212,29.05Zm-7.82,26c-15.87,0-30.88,12.27-30.88,34.48s15,34.47,30.88,34.47c16.07,0,31.08-12.69,31.08-34.9S220.23,55.06,204.16,55.06Z"/><path class="cls-1" d="M335.91,29.05c18.82,0,31.72,8.88,38.7,18.61V31h29.82V148.12H374.61V131c-7,10.15-20.31,19-38.92,19-29.6,0-53.29-24.32-53.29-60.91S306.09,29.05,335.91,29.05Zm7.61,26c-15.86,0-30.88,11.85-30.88,34.05s15,34.9,30.88,34.9c16.28,0,31.09-12.27,31.09-34.47S359.8,55.06,343.52,55.06Z"/><path class="cls-1" d="M477,111.74,455.6,148.12H423.88l38.28-58.8L423.45,31h33.42l23.9,36.17L502.34,31h31.72L495.57,89.32l38.91,58.8H501.07Z"/></g></g></svg>