<svg xmlns="http://www.w3.org/2000/svg" viewBox="0 0 65.78 77.61"><defs><style>.cls-1{fill:#fff;}</style></defs><title>Ativo 2</title><g id="Camada_2" data-name="Camada 2"><g id="Camada_1-2" data-name="Camada 1"><polygon class="cls-1" points="31.72 36.72 31.88 0 0.12 18.76 0 55.53 31.72 36.72"/><path d="M17.48,23.66V35H14.4V23.66H8.75V20.58H23.12v3.08Z"/><polygon class="cls-1" points="34.05 36.72 33.9 0 65.66 18.76 65.78 55.53 34.05 36.72"/><path d="M57,20.58v3.08H45.73V25.2a.91.91,0,0,0,1,1h6.16q4.11,0,4.11,4.11v.51q0,4.11-4.11,4.11H46.76q-4.11,0-4.11-4.11h3.08a.91.91,0,0,0,1,1h6.16a.91.91,0,0,0,1-1v-.51a.92.92,0,0,0-1-1H46.76c-2.74,0-4.11-1.36-4.11-4.1V20.58Z"/><polygon class="cls-1" points="33.03 77.61 65.78 58.6 33.03 39.11 0.11 58.36 33.03 77.61"/><text></text><path d="M29.87,65.54q-4.11,0-4.11-4.1h3.08a.9.9,0,0,0,1,1H36a.9.9,0,0,0,1-1V59.81a6.4,6.4,0,0,1-1,.08H29.87q-4.11,0-4.11-4.11v-.51q0-4.11,4.11-4.11H36q4.09,0,4.1,4.11v6.16q0,4.09-4.1,4.1Zm7.18-10.26a.9.9,0,0,0-1-1H29.87a.91.91,0,0,0-1,1v.51a.91.91,0,0,0,1,1H36a.91.91,0,0,0,1-1Z"/></g></g></svg>