<svg xmlns="http://www.w3.org/2000/svg" viewBox="0 0 93.97 110.86"><defs><style>.cls-1{fill:#fff;}</style></defs><title>Ativo 1</title><g id="Camada_2" data-name="Camada 2"><g id="Camada_1-2" data-name="Camada 1"><polygon points="45.32 52.45 45.54 0 0.17 26.8 0 79.33 45.32 52.45"/><path class="cls-1" d="M25,33.8V49.93h-4.4V33.8H12.5V29.4H33v4.4Z"/><polygon points="48.65 52.45 48.43 0 93.8 26.8 93.97 79.33 48.65 52.45"/><path class="cls-1" d="M81.47,29.4v4.4H65.33V36a1.29,1.29,0,0,0,1.47,1.46h8.8q5.87,0,5.87,5.87v.73q0,5.86-5.87,5.87H66.8q-5.86,0-5.87-5.87h4.4a1.3,1.3,0,0,0,1.47,1.47h8.8a1.3,1.3,0,0,0,1.47-1.47v-.73a1.3,1.3,0,0,0-1.47-1.47H66.8q-5.86,0-5.87-5.86V29.4Z"/><polygon points="47.18 110.86 93.97 83.71 47.18 55.87 0.16 83.37 47.18 110.86"/><text></text><path class="cls-1" d="M42.67,93.63c-3.92,0-5.87-1.95-5.87-5.86h4.4a1.3,1.3,0,0,0,1.47,1.46h8.8a1.29,1.29,0,0,0,1.46-1.46V85.45a9.57,9.57,0,0,1-1.46.1v0h-8.8c-3.92,0-5.87-2-5.87-5.87V79c0-3.91,2-5.87,5.87-5.87h8.8q5.87,0,5.86,5.87v8.8q0,5.87-5.86,5.86ZM52.93,79a1.3,1.3,0,0,0-1.46-1.47h-8.8A1.3,1.3,0,0,0,41.2,79v.73a1.3,1.3,0,0,0,1.47,1.47h8.8v0a1.29,1.29,0,0,0,1.46-1.46Z"/></g></g></svg>